<svg width="24" height="24" viewBox="0 0 24 24" fill="none" xmlns="http://www.w3.org/2000/svg">
<g clip-path="url(#clip0_3002_3231)">
<mask id="path-2-inside-1_3002_3231" fill="white">
<path d="M21.174 11.7106C21.174 10.9317 21.1121 10.3633 20.9782 9.77393H12.2725V13.2894H17.3825C17.2796 14.163 16.7232 15.4787 15.4869 16.3628L15.4695 16.4805L18.2221 18.659L18.4128 18.6784C20.1643 17.0259 21.174 14.5945 21.174 11.7106Z"/>
</mask>
<path d="M21.174 11.7106C21.174 10.9317 21.1121 10.3633 20.9782 9.77393H12.2725V13.2894H17.3825C17.2796 14.163 16.7232 15.4787 15.4869 16.3628L15.4695 16.4805L18.2221 18.659L18.4128 18.6784C20.1643 17.0259 21.174 14.5945 21.174 11.7106Z" fill="#4285F4"/>
<path d="M20.9782 9.77393L30.2886 7.65911L28.6003 0.226407H20.9782V9.77393ZM12.2725 9.77393V0.226407H2.72494V9.77393H12.2725ZM12.2725 13.2894H2.72494V22.8369H12.2725V13.2894ZM17.3825 13.2894L26.8644 14.4071L28.1217 3.74185H17.3825V13.2894ZM15.4869 16.3628L9.9334 8.59655L6.6324 10.957L6.04121 14.9719L15.4869 16.3628ZM15.4695 16.4805L6.02388 15.0896L5.22057 20.5449L9.54443 23.967L15.4695 16.4805ZM18.2221 18.659L12.297 26.1455L14.4818 27.8746L17.2536 28.1572L18.2221 18.659ZM18.4128 18.6784L17.4443 28.1767L21.7887 28.6197L24.965 25.6228L18.4128 18.6784ZM21.174 11.7106H30.7215C30.7215 10.3428 30.6051 9.05264 30.2886 7.65911L20.9782 9.77393L11.6679 11.8887C11.6627 11.8658 11.6547 11.8278 11.6467 11.7793C11.6386 11.7306 11.6327 11.6855 11.6289 11.6479C11.621 11.5717 11.6264 11.575 11.6264 11.7106H21.174ZM20.9782 9.77393V0.226407H12.2725V9.77393V19.3214H20.9782V9.77393ZM12.2725 9.77393H2.72494V13.2894H12.2725H21.82V9.77393H12.2725ZM12.2725 13.2894V22.8369H17.3825V13.2894V3.74185H12.2725V13.2894ZM17.3825 13.2894L7.90068 12.1716C8.00455 11.2905 8.25833 10.6425 8.5247 10.1657C8.81868 9.63947 9.27106 9.07018 9.9334 8.59655L15.4869 16.3628L21.0403 24.129C24.7305 21.4902 26.4871 17.6074 26.8644 14.4071L17.3825 13.2894ZM15.4869 16.3628L6.04121 14.9719L6.02388 15.0896L15.4695 16.4805L24.9152 17.8713L24.9325 17.7536L15.4869 16.3628ZM15.4695 16.4805L9.54443 23.967L12.297 26.1455L18.2221 18.659L24.1472 11.1724L21.3946 8.99393L15.4695 16.4805ZM18.2221 18.659L17.2536 28.1572L17.4443 28.1767L18.4128 18.6784L19.3814 9.18014L19.1907 9.1607L18.2221 18.659ZM18.4128 18.6784L24.965 25.6228C28.8796 21.9293 30.7215 16.8561 30.7215 11.7106H21.174H11.6264C11.6264 12.0372 11.5704 12.1483 11.5892 12.1014C11.5979 12.0796 11.6213 12.0283 11.6684 11.9585C11.7157 11.8883 11.7797 11.8105 11.8607 11.734L18.4128 18.6784Z" fill="#4285F4" mask="url(#path-2-inside-1_3002_3231)"/>
<path d="M12.2726 20.9729C14.7761 20.9729 16.8779 20.1308 18.413 18.6783L15.487 16.3627C14.7041 16.9205 13.6532 17.31 12.2726 17.31C9.82061 17.31 7.73948 15.6575 6.99762 13.3735L6.88888 13.383L4.02669 15.6459L3.98926 15.7522C5.51404 18.8467 8.64606 20.9729 12.2726 20.9729Z" fill="#34A853"/>
<path d="M6.9974 13.3736C6.80165 12.7842 6.68836 12.1526 6.68836 11.5C6.68836 10.8474 6.80165 10.2159 6.9871 9.62651L6.98191 9.50098L4.08385 7.20166L3.98903 7.24774C3.3606 8.53185 3 9.97386 3 11.5C3 13.0262 3.3606 14.4682 3.98903 15.7523L6.9974 13.3736Z" fill="#FBBC05"/>
<path d="M12.2726 5.68991C14.0138 5.68991 15.1882 6.45826 15.8579 7.10036L18.4748 4.49004C16.8676 2.96386 14.7761 2.0271 12.2726 2.0271C8.64606 2.0271 5.51404 4.15321 3.98926 7.24766L6.98732 9.62643C7.73949 7.34242 9.82061 5.68991 12.2726 5.68991Z" fill="#EB4335"/>
</g>
<defs>
<clipPath id="clip0_3002_3231">
<rect x="3" y="2" width="18.1739" height="19" rx="9.08696" fill="white"/>
</clipPath>
</defs>
</svg>
