<svg width="28" height="30" viewBox="0 0 28 30" fill="none" xmlns="http://www.w3.org/2000/svg">
<mask id="mask0_1940_10372" style="mask-type:luminance" maskUnits="userSpaceOnUse" x="0" y="0" width="28" height="30">
<path d="M0.113281 0.319336H27.8867V29.8395H0.113281V0.319336Z" fill="white"/>
</mask>
<g mask="url(#mask0_1940_10372)">
<path d="M27.7912 15.3845L24.2442 8.9685C24.2282 8.94492 24.2097 8.92318 24.1888 8.90395C24.176 8.88335 24.1605 8.86481 24.1428 8.84856C24.1101 8.8227 24.0746 8.80095 24.0366 8.78401L23.9952 8.7609L17.8604 6.67601C17.7243 6.63619 17.5771 6.66137 17.4617 6.74422C17.3464 6.82708 17.2756 6.95846 17.2701 7.10036V7.6078V7.94448L14.5071 6.80056V5.0755C14.5071 4.95328 14.4586 4.83586 14.3721 4.74934C14.2855 4.66282 14.1684 4.6143 14.0459 4.6143H13.9999C13.5655 4.6143 13.1491 4.44172 12.842 4.13456C12.5348 3.82763 12.3625 3.41105 12.3625 2.97687V2.83839C12.3625 2.25337 12.6744 1.71298 13.1812 1.42048C13.6877 1.12797 14.3119 1.12797 14.8186 1.42048C15.3251 1.713 15.6373 2.25339 15.6373 2.83839V3.41494C15.6028 3.55273 15.6337 3.69876 15.7211 3.81091C15.8085 3.92284 15.9427 3.98829 16.0846 3.98829C16.2267 3.98829 16.3608 3.92283 16.4483 3.81091C16.5357 3.69876 16.5666 3.55273 16.532 3.41494V2.85235C16.532 1.94596 16.0486 1.10848 15.2636 0.65532C14.4787 0.202133 13.5117 0.202133 12.7269 0.65532C11.9418 1.10851 11.4584 1.94596 11.4584 2.85235V2.99083V2.9906C11.4589 3.59464 11.6754 4.17847 12.0686 4.63696C12.4621 5.09541 13.0064 5.39821 13.6033 5.49067V6.81454L10.7711 8.11526C10.7418 7.94749 10.7265 7.77789 10.7248 7.60783V7.1004C10.7194 6.95849 10.6486 6.82711 10.5333 6.74426C10.4179 6.66141 10.2707 6.63622 10.1346 6.67605L4.00449 8.76093C4.00449 8.76093 3.97679 8.76093 3.95825 8.78863H3.95848C3.92118 8.80236 3.88684 8.8225 3.85709 8.84859C3.83786 8.86645 3.82092 8.88659 3.80627 8.90856C3.78705 8.92641 3.77011 8.94655 3.75546 8.96852L0.208491 15.3845C0.146921 15.4994 0.136848 15.6352 0.180796 15.7581C0.228632 15.8796 0.325909 15.9753 0.448358 16.0211L5.66959 17.9398V29.379C5.66959 29.5012 5.71834 29.6187 5.80486 29.7052C5.89138 29.7917 6.00856 29.8402 6.13101 29.8402H21.8828C22.0052 29.8402 22.1224 29.7917 22.2089 29.7052C22.2954 29.6187 22.344 29.5012 22.344 29.379V17.9398L27.5515 16.0025C27.6739 15.9568 27.7712 15.8613 27.819 15.7396C27.8577 15.6224 27.8479 15.4944 27.7914 15.3846L27.7912 15.3845ZM14.0691 7.5892L17.0304 8.82541C16.7118 9.61942 16.0945 10.2566 15.3113 10.6004C14.5278 10.9439 13.6409 10.9664 12.8409 10.6629C12.0413 10.3596 11.3923 9.75444 11.0341 8.9776L14.0691 7.5892ZM1.24647 15.3611L4.12465 10.1536L5.66983 13.3408V16.9846L1.24647 15.3611ZM21.4355 28.9449H6.56502V13.2347C6.56548 13.1679 6.55129 13.1017 6.5236 13.0408L4.77539 9.44307L9.84926 7.72258L9.84903 7.72281C9.86551 9.07047 10.5352 10.3266 11.6453 11.091C12.7553 11.8557 14.1676 12.0338 15.4328 11.5685C16.6979 11.1034 17.6582 10.0528 18.0087 8.75139V8.72369C18.0984 8.39731 18.1465 8.06106 18.1517 7.7228L23.2256 9.44328L21.4728 13.0411L21.4726 13.0408C21.4449 13.1017 21.4309 13.1679 21.4312 13.2347L21.4355 28.9449ZM22.3304 16.9847V13.3409L23.8756 10.1537L26.7538 15.3612L22.3304 16.9847Z" fill="#1E1E1E"/>
</g>
</svg>
